<svg id="visual" viewBox="0 0 1500 850" width="1500" height="850" xmlns="http://www.w3.org/2000/svg" xmlns:xlink="http://www.w3.org/1999/xlink" version="1.1"><rect x="0" y="0" width="1500" height="850" fill="#000000"></rect><path d="M0 573L35.7 561.3C71.3 549.7 142.7 526.3 214.2 517.3C285.7 508.3 357.3 513.7 428.8 527.7C500.3 541.7 571.7 564.3 643 566C714.3 567.7 785.7 548.3 857 537.2C928.3 526 999.7 523 1071.2 522.3C1142.7 521.7 1214.3 523.3 1285.8 532.2C1357.3 541 1428.7 557 1464.3 565L1500 573L1500 851L1464.3 851C1428.7 851 1357.3 851 1285.8 851C1214.3 851 1142.7 851 1071.2 851C999.7 851 928.3 851 857 851C785.7 851 714.3 851 643 851C571.7 851 500.3 851 428.8 851C357.3 851 285.7 851 214.2 851C142.7 851 71.3 851 35.7 851L0 851Z" fill="#fa7268"></path><path d="M0 621L35.7 618.7C71.3 616.3 142.7 611.7 214.2 615.3C285.7 619 357.3 631 428.8 633.3C500.3 635.7 571.7 628.3 643 632.2C714.3 636 785.7 651 857 658.3C928.3 665.7 999.7 665.3 1071.2 651.5C1142.7 637.7 1214.3 610.3 1285.8 597.7C1357.3 585 1428.7 587 1464.3 588L1500 589L1500 851L1464.3 851C1428.7 851 1357.3 851 1285.8 851C1214.3 851 1142.7 851 1071.2 851C999.7 851 928.3 851 857 851C785.7 851 714.3 851 643 851C571.7 851 500.3 851 428.8 851C357.3 851 285.7 851 214.2 851C142.7 851 71.3 851 35.7 851L0 851Z" fill="#ef5f67"></path><path d="M0 671L35.7 672.8C71.3 674.7 142.7 678.3 214.2 672.5C285.7 666.7 357.3 651.3 428.8 652.2C500.3 653 571.7 670 643 679.8C714.3 689.7 785.7 692.3 857 686.7C928.3 681 999.7 667 1071.2 656.8C1142.7 646.7 1214.3 640.3 1285.8 645.3C1357.3 650.3 1428.7 666.7 1464.3 674.8L1500 683L1500 851L1464.3 851C1428.7 851 1357.3 851 1285.8 851C1214.3 851 1142.7 851 1071.2 851C999.7 851 928.3 851 857 851C785.7 851 714.3 851 643 851C571.7 851 500.3 851 428.8 851C357.3 851 285.7 851 214.2 851C142.7 851 71.3 851 35.7 851L0 851Z" fill="#e34c67"></path><path d="M0 757L35.7 758.7C71.3 760.3 142.7 763.7 214.2 759C285.7 754.3 357.3 741.7 428.8 738.3C500.3 735 571.7 741 643 747.7C714.3 754.3 785.7 761.7 857 750.7C928.3 739.7 999.7 710.3 1071.2 708.7C1142.7 707 1214.3 733 1285.8 734.5C1357.3 736 1428.7 713 1464.3 701.5L1500 690L1500 851L1464.3 851C1428.7 851 1357.3 851 1285.8 851C1214.3 851 1142.7 851 1071.2 851C999.7 851 928.3 851 857 851C785.7 851 714.3 851 643 851C571.7 851 500.3 851 428.8 851C357.3 851 285.7 851 214.2 851C142.7 851 71.3 851 35.7 851L0 851Z" fill="#d53867"></path><path d="M0 762L35.7 769.2C71.3 776.3 142.7 790.7 214.2 787.7C285.7 784.7 357.3 764.3 428.8 758.3C500.3 752.3 571.7 760.7 643 763.7C714.3 766.7 785.7 764.3 857 762.2C928.3 760 999.7 758 1071.2 762C1142.7 766 1214.3 776 1285.8 780.3C1357.3 784.7 1428.7 783.3 1464.3 782.7L1500 782L1500 851L1464.3 851C1428.7 851 1357.3 851 1285.8 851C1214.3 851 1142.7 851 1071.2 851C999.7 851 928.3 851 857 851C785.7 851 714.3 851 643 851C571.7 851 500.3 851 428.8 851C357.3 851 285.7 851 214.2 851C142.7 851 71.3 851 35.7 851L0 851Z" fill="#c62368"></path></svg>