<svg id="visual" viewBox="0 0 1500 900" width="1500" height="900" xmlns="http://www.w3.org/2000/svg" xmlns:xlink="http://www.w3.org/1999/xlink" version="1.1"><rect x="0" y="0" width="1500" height="900" fill="#001220"></rect><path d="M0 606L35.7 593.8C71.3 581.7 142.7 557.3 214.2 547.8C285.7 538.3 357.3 543.7 428.8 558.5C500.3 573.3 571.7 597.7 643 599.5C714.3 601.3 785.7 580.7 857 568.8C928.3 557 999.7 554 1071.2 553.2C1142.7 552.3 1214.3 553.7 1285.8 563C1357.3 572.3 1428.7 589.7 1464.3 598.3L1500 607L1500 901L1464.3 901C1428.7 901 1357.3 901 1285.8 901C1214.3 901 1142.7 901 1071.2 901C999.7 901 928.3 901 857 901C785.7 901 714.3 901 643 901C571.7 901 500.3 901 428.8 901C357.3 901 285.7 901 214.2 901C142.7 901 71.3 901 35.7 901L0 901Z" fill="#fa7268"></path><path d="M0 657L35.7 654.7C71.3 652.3 142.7 647.7 214.2 651.7C285.7 655.7 357.3 668.3 428.8 670.8C500.3 673.3 571.7 665.7 643 669.7C714.3 673.7 785.7 689.3 857 697.2C928.3 705 999.7 705 1071.2 690.3C1142.7 675.7 1214.3 646.3 1285.8 632.8C1357.3 619.3 1428.7 621.7 1464.3 622.8L1500 624L1500 901L1464.3 901C1428.7 901 1357.3 901 1285.8 901C1214.3 901 1142.7 901 1071.2 901C999.7 901 928.3 901 857 901C785.7 901 714.3 901 643 901C571.7 901 500.3 901 428.8 901C357.3 901 285.7 901 214.2 901C142.7 901 71.3 901 35.7 901L0 901Z" fill="#ef5f67"></path><path d="M0 710L35.7 712C71.3 714 142.7 718 214.2 711.8C285.7 705.7 357.3 689.3 428.8 690.3C500.3 691.3 571.7 709.7 643 720.2C714.3 730.7 785.7 733.3 857 727.3C928.3 721.3 999.7 706.7 1071.2 696C1142.7 685.3 1214.3 678.7 1285.8 683.8C1357.3 689 1428.7 706 1464.3 714.5L1500 723L1500 901L1464.3 901C1428.7 901 1357.3 901 1285.8 901C1214.3 901 1142.7 901 1071.2 901C999.7 901 928.3 901 857 901C785.7 901 714.3 901 643 901C571.7 901 500.3 901 428.8 901C357.3 901 285.7 901 214.2 901C142.7 901 71.3 901 35.7 901L0 901Z" fill="#e34c67"></path><path d="M0 802L35.7 803.8C71.3 805.7 142.7 809.3 214.2 804.2C285.7 799 357.3 785 428.8 781.3C500.3 777.7 571.7 784.3 643 791.7C714.3 799 785.7 807 857 795.3C928.3 783.7 999.7 752.3 1071.2 750.5C1142.7 748.7 1214.3 776.3 1285.8 777.8C1357.3 779.3 1428.7 754.7 1464.3 742.3L1500 730L1500 901L1464.3 901C1428.7 901 1357.3 901 1285.8 901C1214.3 901 1142.7 901 1071.2 901C999.7 901 928.3 901 857 901C785.7 901 714.3 901 643 901C571.7 901 500.3 901 428.8 901C357.3 901 285.7 901 214.2 901C142.7 901 71.3 901 35.7 901L0 901Z" fill="#d53867"></path><path d="M0 806L35.7 813.7C71.3 821.3 142.7 836.7 214.2 833.5C285.7 830.3 357.3 808.7 428.8 802.3C500.3 796 571.7 805 643 808.3C714.3 811.7 785.7 809.3 857 807.2C928.3 805 999.7 803 1071.2 807.2C1142.7 811.3 1214.3 821.7 1285.8 826.2C1357.3 830.7 1428.7 829.3 1464.3 828.7L1500 828L1500 901L1464.3 901C1428.7 901 1357.3 901 1285.8 901C1214.3 901 1142.7 901 1071.2 901C999.7 901 928.3 901 857 901C785.7 901 714.3 901 643 901C571.7 901 500.3 901 428.8 901C357.3 901 285.7 901 214.2 901C142.7 901 71.3 901 35.7 901L0 901Z" fill="#c62368"></path></svg>