<svg xmlns="http://www.w3.org/2000/svg" version="1.1" xmlns:xlink="http://www.w3.org/1999/xlink" xmlns:svgjs="http://svgjs.com/svgjs" width="1500" height="900" preserveAspectRatio="none" viewBox="0 0 1500 900"><g mask="url(&quot;#SvgjsMask1024&quot;)" fill="none"><rect width="1500" height="900" x="0" y="0" fill="#0e2a47"></rect><path d="M0,559.008C138.295,579.773,281.921,696.628,404.863,629.98C526.038,564.29,524.773,388.94,559.684,255.599C589.178,142.948,610.944,29.782,592.093,-85.13C573.503,-198.447,519.489,-298.952,453.314,-392.799C380.983,-495.378,306.38,-601.872,191.719,-652.933C69.316,-707.441,-71.075,-717.369,-200.876,-684.122C-333.166,-650.237,-452.934,-573,-537.86,-466.058C-620.845,-361.56,-668.812,-229.466,-667.898,-96.029C-667.047,28.24,-592.34,134.224,-533.001,243.414C-477.728,345.122,-433.212,460.123,-333.606,519.1C-235.245,577.34,-113.043,542.035,0,559.008" fill="#0b2239"></path><path d="M1500 1528.547C1616.145 1508.812 1722.614 1464.301 1821.847 1400.8029999999999 1921.248 1337.1970000000001 2031.723 1272.252 2073.19 1161.767 2113.9539999999997 1053.156 2071.507 933.848 2038.8899999999999 822.519 2010.036 724.034 1959.483 637.5 1895.973 556.887 1829.687 472.75 1760.135 390.155 1662.887 345.25800000000004 1556.097 295.956 1436.066 265.58399999999995 1321.359 291.605 1203.487 318.34400000000005 1105.81 398.502 1026.42 489.64 946.886 580.944 874.384 688.44 870.262 809.457 866.277 926.456 968.994 1014.702 1004.739 1126.1779999999999 1047.174 1258.518 991.383 1435.9479999999999 1099.248 1523.5819999999999 1205.079 1609.563 1365.571 1551.388 1500 1528.547" fill="#113255"></path></g><defs><mask id="SvgjsMask1024"><rect width="1500" height="900" fill="#ffffff"></rect></mask></defs></svg>